<svg version="1.1" xmlns="http://www.w3.org/2000/svg" xmlns:xlink="http://www.w3.org/1999/xlink" width="512.000000pt" height="512.000000pt" viewBox="0,0,256,256"><g fill="#ffffff" fill-rule="nonzero" stroke="none" stroke-width="1" stroke-linecap="butt" stroke-linejoin="miter" stroke-miterlimit="10" stroke-dasharray="" stroke-dashoffset="0" font-family="none" font-weight="none" font-size="none" text-anchor="none" style="mix-blend-mode: normal"><g transform="translate(0.14986,-5.375) scale(0.5,0.5)"><g transform="translate(0,512) scale(0.1,-0.1)"><path d="M560,4345l-135,-135l293,-293l293,-293l-68,-54c-249,-203 -485,-504 -643,-823c-44,-88 -80,-172 -80,-186c0,-40 147,-330 230,-456c258,-389 593,-684 1005,-886c364,-178 683,-251 1095,-253c314,-1 520,31 800,124l145,48l358,-356l357,-357l135,135l135,135l-1893,1893l-1892,1892zM1776,2859l161,-161l-8,-41c-23,-120 0,-261 63,-387c121,-242 411,-390 665,-341l41,8l161,-161c89,-89 161,-164 161,-168c0,-3 -33,-20 -72,-36c-208,-87 -435,-101 -663,-42c-102,26 -281,114 -365,178c-384,292 -528,805 -348,1240c16,39 33,72 36,72c4,0 79,-72 168,-161z"></path><path d="M2375,4154c-123,-13 -222,-27 -315,-45c-107,-21 -329,-85 -342,-97c-4,-4 95,-110 220,-235l228,-227l58,20c264,90 545,71 801,-54c129,-64 214,-125 310,-227c163,-173 259,-384 286,-632c16,-141 -11,-337 -65,-477c-4,-10 92,-113 303,-324l310,-309l33,25c58,44 237,230 313,323c40,50 108,142 150,205c98,148 230,411 229,460c0,22 -22,81 -60,160c-372,770 -1081,1291 -1929,1416c-97,14 -450,26 -530,18z"></path><path d="M2860,2866l335,-336l3,47c2,25 -4,80 -13,120c-41,185 -170,350 -335,430c-96,46 -146,60 -251,69l-74,6z"></path></g></g></g></svg>