<svg version="1.1" xmlns="http://www.w3.org/2000/svg" xmlns:xlink="http://www.w3.org/1999/xlink" width="512.000000pt" height="512.000000pt" viewBox="0,0,256,256"><g fill="#ffffff" fill-rule="nonzero" stroke="none" stroke-width="1" stroke-linecap="butt" stroke-linejoin="miter" stroke-miterlimit="10" stroke-dasharray="" stroke-dashoffset="0" font-family="none" font-weight="none" font-size="none" text-anchor="none" style="mix-blend-mode: normal"><g transform="translate(0,0.03553) scale(0.5,0.5)"><g transform="translate(0,512) scale(0.1,-0.1)"><path d="M2404,4080c-846,-49 -1644,-502 -2280,-1294c-166,-207 -166,-244 1,-453c635,-793 1436,-1245 2286,-1292c961,-52 1870,402 2585,1293c166,207 166,244 -1,453c-464,579 -1016,977 -1626,1172c-190,61 -419,105 -599,116c-196,11 -238,12 -366,5zM2772,3614c287,-54 563,-250 713,-505c180,-308 199,-680 51,-995c-58,-123 -114,-203 -209,-301c-535,-551 -1446,-383 -1756,324c-112,255 -114,567 -5,833c105,259 334,485 595,588c198,78 396,96 611,56z"></path><path d="M2455,3130c-163,-35 -307,-136 -389,-274c-61,-101 -81,-176 -80,-296c0,-116 11,-163 57,-260c43,-89 167,-213 258,-257c321,-155 694,3 810,342c33,97 34,249 2,350c-73,231 -285,392 -528,401c-49,2 -108,-1 -130,-6z"></path></g></g></g></svg>